<svg width="397" height="377" viewBox="0 0 397 377" fill="none" xmlns="http://www.w3.org/2000/svg">
<g clip-path="url(#clip0_589_3)">
<rect width="397" height="377" fill="white"/>
<rect width="397" height="377" fill="url(#paint0_linear_589_3)"/>
<path d="M128.312 235C122.375 235 118.875 231.375 118.875 225.125V154.625C118.875 148.438 122.375 144.812 128.312 144.812H153.312C180.375 144.812 196.312 160.938 196.312 189.562C196.312 218.188 180.375 235 153.312 235H128.312ZM137.75 219.375H151.062C167.938 219.375 177.062 209.125 177.062 189.625C177.062 170.75 167.688 160.375 151.062 160.375H137.75V219.375ZM210.75 236.188C204.875 236.188 201.188 232.75 201.188 227.312C201.188 225.75 201.625 223.625 202.438 221.312L227.062 154.25C229.688 146.938 234.125 143.562 241.25 143.562C248.625 143.562 253 146.812 255.688 154.188L280.438 221.312C281.312 223.75 281.625 225.438 281.625 227.312C281.625 232.5 277.688 236.188 272.188 236.188C266.875 236.188 264.062 233.75 262.375 227.875L257.625 213.625H225.062L220.312 227.688C218.562 233.688 215.75 236.188 210.75 236.188ZM229.188 199H253.25L241.312 162.062H240.875L229.188 199Z" fill="white"/>
</g>
<defs>
<linearGradient id="paint0_linear_589_3" x1="198.5" y1="0" x2="198.5" y2="377" gradientUnits="userSpaceOnUse">
<stop stop-color="#4336D9"/>
<stop offset="0.0001"/>
<stop offset="1"/>
</linearGradient>
<clipPath id="clip0_589_3">
<rect width="397" height="377" fill="white"/>
</clipPath>
</defs>
</svg>
